# xmcd
#
# Track frame offsets:
# 150
# 17784
# 32209
# 52918
# 67552
# 87286
# 101069
# 113186
# 130820
# 144552
# 162560
# 180193
# 194617
# 215326
# 229961
# 249695
# 263478
# 275595
# 293228
# 306960
#
# Disc length: 4331 seconds
#
#
# Revision: 0
# Processed by: cddbd v1.5.1PL2 Copyright (c) Steve Scherf et al.
# Submitted via: FreeRIP 2.942 
#
DISCID=2110e914
DTITLE=Garth Brooks and Alan Jackson - You Sing the Hits of Garth Brooks and Alan Jackson
DYEAR=1900
DGENRE=country
TTITLE0=A New Way To Fly
TTITLE1=Beer Run
TTITLE2=Why Ain't I Runnin'
TTITLE3=Wild Horses
TTITLE4=Wrapped Up In You
TTITLE5=A Little Bluer Than That
TTITLE6=Buicks To The Moon
TTITLE7=Five O'Clock Somewhere
TTITLE8=Hey, Good Lookin'
TTITLE9=I'll Go On Lovin' You
TTITLE10=A New Way To Fly--Karaoke
TTITLE11=Beer Run--Karaoke
TTITLE12=Why Ain't I Runnin'--Karaoke
TTITLE13=Wild Horses--Karaoke
TTITLE14=Wrapped Up In You--Karaoke
TTITLE15=A Little Bluer Than Tha--Karaoket
TTITLE16=Buicks To The Moon--Karaoke
TTITLE17=Five O'Clock Somewhere--Karaoke
TTITLE18=Hey, Good Lookin'--Karaoke
TTITLE19=I'll Go On Lovin' You--Karaoke
EXTD=Karaoke
EXTT0=
EXTT1=
EXTT2=
EXTT3=
EXTT4=
EXTT5=
EXTT6=
EXTT7=
EXTT8=
EXTT9=
EXTT10=
EXTT11=
EXTT12=
EXTT13=
EXTT14=
EXTT15=
EXTT16=
EXTT17=
EXTT18=
EXTT19=
PLAYORDER=
